<svg width="87" height="23" viewBox="0 0 87 23" fill="none" xmlns="http://www.w3.org/2000/svg">
<g style="mix-blend-mode:soft-light">
<path d="M86.9931 25.4736C85.8857 25.8065 84.7407 25.9835 83.5885 26C79.9916 26 78.0787 24.3898 78.0787 20.9756V0.363639H80.0945C82.195 0.363639 82.8792 1.64366 82.8792 3.42373V4.98847H86.9977V6.18476C86.9977 7.9074 85.8537 8.88357 84.1605 8.88357H82.8814V20.0784C82.8814 21.3034 83.2773 22.1767 84.9407 22.1767C85.6388 22.161 86.3316 22.0459 87 21.8345V25.4736H86.9931ZM74.5116 8.3261C75.256 8.34766 75.9948 8.46743 76.7105 8.6826V4.98847C75.3907 4.6982 74.0478 4.53799 72.6994 4.50996C69.5282 4.50996 67.2904 5.87851 67.2904 9.47214V25.5023H72.0954V10.4603C72.0908 9.1324 72.8985 8.3261 74.5116 8.3261ZM46.9447 10.3191C46.9447 8.25672 45.8327 4.52431 39.4146 4.52431C36.1243 4.52431 34.8041 5.4311 34.3328 5.76366C33.8454 5.47656 32.3124 4.52431 29.2486 4.52431C23.3179 4.52431 21.7185 7.61073 21.7185 10.1708V25.5023H26.5601V10.5033C26.5601 9.63723 27.0178 8.32371 29.2486 8.32371C30.9739 8.32371 31.912 9.23528 31.912 10.5033V25.5023H36.7536V10.5033C36.7536 9.24006 37.6688 8.32371 39.4146 8.32371C41.3137 8.32371 42.1031 9.34055 42.1031 10.5033V22.0666C42.1031 24.3324 43.3661 25.6124 45.3682 25.6124H46.9447V10.3191ZM57.1816 4.50996C63.2382 4.50996 65.4393 7.51263 65.4393 11.5034V17.9969C65.4393 22.5595 62.641 26 56.8476 26C51.2921 26 48.2787 23.2773 48.2787 19.619C48.2787 16.6929 50.1778 14.7669 54.3101 13.5778C54.9118 13.4055 56.9231 12.7763 57.836 12.4963C59.9228 11.8575 60.5932 11.3623 60.5932 10.4196C60.5932 9.42668 59.4331 8.33807 57.0764 8.33807C54.2552 8.33807 53.3674 10.1588 53.3537 11.4747H48.9491C48.9491 7.40018 51.2646 4.50996 57.1816 4.50996ZM56.4563 22.1815C58.3188 22.1815 60.5977 20.9493 60.5977 17.8222V15.3626C60.5977 15.3626 56.9368 16.4584 55.9026 16.7982C54.0721 17.3796 53.1935 18.3534 53.1935 19.631C53.1935 20.9086 54.2002 22.1815 56.4563 22.1815Z" fill="url(#paint0_linear_4291)"/>
<path d="M9.60997 25.9881C2.9196 25.9881 0 21.7078 0 16.2958V10.4531C0 2.9309 4.80499 0 10.4222 0C17.2156 0 20.1855 3.86639 20.1855 7.73039C20.1855 13.3745 14.6666 14.7597 12.2298 15.4967C11.5274 15.7096 8.94185 16.5135 8.35839 16.6929C6.0703 17.382 5.42735 18.1524 5.42735 19.0281C5.42735 20.5211 6.67664 21.8154 9.59853 21.8154C12.1406 21.8154 13.9985 20.911 14.3097 18.1357H19.6249C19.0781 22.526 16.552 25.9881 9.60997 25.9881ZM10.2095 4.1846C7.25553 4.1846 5.32209 6.24939 5.32209 9.77125V13.4654C5.32209 13.4654 9.30566 12.2452 10.9828 11.7236C12.3808 11.2786 14.8726 10.3526 14.8726 8.0486C14.8726 6.03166 13.3167 4.1846 10.198 4.1846H10.2095Z" fill="url(#paint1_linear_4291)"/>
</g>
<defs>
<linearGradient id="paint0_linear_4291" x1="78.8736" y1="20.2222" x2="-5.66843" y2="-39.8673" gradientUnits="userSpaceOnUse">
<stop/>
<stop offset="0.989473" stop-opacity="0"/>
</linearGradient>
<linearGradient id="paint1_linear_4291" x1="78.8736" y1="20.2222" x2="-5.66843" y2="-39.8673" gradientUnits="userSpaceOnUse">
<stop/>
<stop offset="0.989473" stop-opacity="0"/>
</linearGradient>
</defs>
</svg>
