<svg width="57" height="27" viewBox="0 0 57 27" fill="none" xmlns="http://www.w3.org/2000/svg">
<g style="mix-blend-mode:soft-light">
<path d="M55.9956 17.6356C55.2827 17.866 54.5457 17.9886 53.8041 18C51.4888 18 50.2576 16.8852 50.2576 14.5216V0.25175H51.5551C52.9071 0.25175 53.3475 1.13792 53.3475 2.37028V3.45356H55.9985V4.28175C55.9985 5.47436 55.2621 6.15017 54.1723 6.15017H53.349V13.9004C53.349 14.7485 53.6038 15.3531 54.6745 15.3531C55.1238 15.3423 55.5698 15.2626 56 15.1162V17.6356H55.9956ZM47.9615 5.76423C48.4406 5.77915 48.9162 5.86207 49.3769 6.01103V3.45356C48.5274 3.2526 47.663 3.14169 46.7951 3.12228C44.7538 3.12228 43.3134 4.06974 43.3134 6.55764V17.6555H46.4062V7.24173C46.4033 6.32243 46.9232 5.76423 47.9615 5.76423ZM30.2173 7.144C30.2173 5.71619 29.5015 3.13222 25.3703 3.13222C23.2525 3.13222 22.4027 3.75999 22.0993 3.99023C21.7856 3.79146 20.7988 3.13222 18.8267 3.13222C15.0092 3.13222 13.9797 5.26896 13.9797 7.0413V17.6555H17.0962V7.27154C17.0962 6.67193 17.3907 5.76257 18.8267 5.76257C19.9372 5.76257 20.541 6.39366 20.541 7.27154V17.6555H23.6575V7.27154C23.6575 6.39697 24.2466 5.76257 25.3703 5.76257C26.5927 5.76257 27.1009 6.46654 27.1009 7.27154V15.2769C27.1009 16.8455 27.9138 17.7317 29.2025 17.7317H30.2173V7.144ZM36.8066 3.12228C40.7051 3.12228 42.1219 5.20105 42.1219 7.96392V12.4594C42.1219 15.6181 40.3206 18 36.5915 18C33.0156 18 31.0759 16.115 31.0759 13.5824C31.0759 11.5566 32.2983 10.2232 34.9582 9.40001C35.3456 9.28075 36.6401 8.84512 37.2278 8.65132C38.571 8.20906 39.0025 7.86619 39.0025 7.21357C39.0025 6.52617 38.2558 5.77251 36.7388 5.77251C34.9229 5.77251 34.3514 7.03302 34.3426 7.94404H31.5075C31.5075 5.1232 32.9979 3.12228 36.8066 3.12228ZM36.3397 15.3564C37.5385 15.3564 39.0054 14.5034 39.0054 12.3384V10.6357C39.0054 10.6357 36.649 11.3943 35.9833 11.6295C34.805 12.032 34.2395 12.7062 34.2395 13.5907C34.2395 14.4752 34.8875 15.3564 36.3397 15.3564Z" fill="url(#paint0_linear_7869)"/>
<path d="M6.18573 17.9917C1.87928 17.9917 0 15.0285 0 11.2817V7.23678C0 2.02908 3.09286 0 6.70857 0C11.0813 0 12.993 2.67673 12.993 5.35181C12.993 9.25924 9.4406 10.2183 7.87208 10.7285C7.41993 10.8759 5.75567 11.4324 5.38011 11.5567C3.90732 12.0337 3.49346 12.5671 3.49346 13.1733C3.49346 14.2069 4.29761 15.103 6.17837 15.103C7.81464 15.103 9.01055 14.4769 9.21085 12.5555H12.6321C12.2801 15.5949 10.6542 17.9917 6.18573 17.9917ZM6.5716 2.89703C4.67023 2.89703 3.42572 4.3265 3.42572 6.76471V9.32218C3.42572 9.32218 5.98985 8.47742 7.06941 8.11633C7.96928 7.80824 9.57315 7.16721 9.57315 5.57211C9.57315 4.17577 8.57165 2.89703 6.56424 2.89703H6.5716Z" fill="url(#paint1_linear_7869)"/>
<path d="M8.16659 23.8308C8.16659 21.503 6.68451 20.25 4.62872 20.25C2.42471 20.25 1 21.7088 1 23.8811C1 26.1265 2.40559 27.4985 4.70043 27.4985C6.60802 27.4985 7.8654 26.6159 8.13791 25.2485H6.01518C5.83351 25.6601 5.36976 25.9162 4.74346 25.9162C3.82074 25.9162 3.25181 25.3308 3.25181 24.4345V24.3887H8.16659V23.8308ZM4.67652 21.8323C5.46538 21.8323 6.02952 22.3628 6.03909 23.1037H3.25181C3.28528 22.3811 3.87333 21.8323 4.67652 21.8323Z" fill="url(#paint2_linear_7869)"/>
<path d="M13.1511 20.3415L11.7646 25.2165H11.6881L10.3017 20.3415H7.89686L10.4212 27.3659H13.0268L15.5559 20.3415H13.1511Z" fill="url(#paint3_linear_7869)"/>
<path d="M21.9747 23.6982C21.9747 21.3704 20.4926 20.1174 18.4368 20.1174C16.2328 20.1174 14.8081 21.5762 14.8081 23.7485C14.8081 25.9939 16.2137 27.3659 18.5086 27.3659C20.4161 27.3659 21.6735 26.4832 21.946 25.1159H19.8233C19.6416 25.5274 19.1779 25.7835 18.5516 25.7835C17.6289 25.7835 17.0599 25.1982 17.0599 24.3018V24.2561H21.9747V23.6982ZM18.4847 21.6997C19.2735 21.6997 19.8377 22.2302 19.8472 22.971H17.0599C17.0934 22.2485 17.6815 21.6997 18.4847 21.6997Z" fill="url(#paint4_linear_7869)"/>
<path d="M24.9521 27.2378V23.3918C24.9521 22.5503 25.5784 21.9832 26.4294 21.9832C26.7067 21.9832 27.1179 22.0244 27.333 22.0976V20.1905C27.1418 20.1494 26.8979 20.1174 26.6828 20.1174C25.8796 20.1174 25.2294 20.5655 24.9617 21.4848H24.8852V20.2134H22.6716V27.2378H24.9521Z" fill="url(#paint5_linear_7869)"/>
<path d="M29.4158 30C31.1369 30 31.964 29.2043 32.38 28.0564L35.1625 20.3415H32.7577L31.3569 25.3811H31.2804L29.8939 20.3415H27.5034L30.1186 27.6128L30.0325 27.8277C29.8365 28.2988 29.5449 28.3354 29.1672 28.3354C28.8995 28.3354 28.5791 28.3308 28.2779 28.3079L28.2732 29.9634C28.5744 29.9909 28.9807 30 29.4158 30Z" fill="url(#paint6_linear_7869)"/>
<path d="M37.8277 27.471C38.9512 27.471 39.6014 26.8674 39.8978 26.2317H39.9695V27.3659H42.2261V18H39.9456V21.5396H39.8978C39.6205 20.9085 38.9894 20.25 37.8181 20.25C36.2691 20.25 34.8826 21.3933 34.8826 23.8582C34.8826 26.2409 36.1974 27.471 37.8277 27.471ZM38.607 25.7607C37.7177 25.7607 37.2205 25.0061 37.2205 23.8537C37.2205 22.7058 37.7129 21.9558 38.607 21.9558C39.4867 21.9558 39.9982 22.6829 39.9982 23.8537C39.9982 25.0107 39.4819 25.7607 38.607 25.7607Z" fill="url(#paint7_linear_7869)"/>
<path d="M46.226 20.25C44.1703 20.25 43.0754 21.2698 42.9702 22.5137H45.0977C45.1886 22.0564 45.5758 21.8003 46.183 21.8003C46.7998 21.8003 47.1775 22.0793 47.1822 22.5732L47.187 23.1357C46.8858 23.1494 45.9535 23.1814 45.4181 23.2134C43.9599 23.3003 42.6977 23.8537 42.6977 25.4131C42.6977 26.8079 43.7161 27.4893 45.1169 27.4893C46.1495 27.4893 46.8619 27.096 47.2539 26.3872H47.3113V27.3659H49.4579V22.6006C49.4579 21.0777 48.0428 20.25 46.226 20.25ZM45.8149 26.0442C45.2555 26.0442 44.8635 25.7927 44.8635 25.3171C44.8635 24.8552 45.2268 24.5534 45.8053 24.4985C46.1496 24.4619 46.9145 24.4253 47.1918 24.4162L47.1966 24.8643C47.2014 25.564 46.5894 26.0442 45.8149 26.0442Z" fill="url(#paint8_linear_7869)"/>
<path d="M51.2533 30C52.9745 30 53.8016 29.2043 54.2175 28.0564L57 20.3415H54.5952L53.1944 25.3811H53.1179L51.7314 20.3415H49.341L51.9561 27.6128L51.8701 27.8277C51.6741 28.2988 51.3824 28.3354 51.0047 28.3354C50.737 28.3354 50.4167 28.3308 50.1155 28.3079L50.1107 29.9634C50.4119 29.9909 50.8183 30 51.2533 30Z" fill="url(#paint9_linear_7869)"/>
</g>
<defs>
<linearGradient id="paint0_linear_7869" x1="51.7692" y1="27.3333" x2="10.4551" y2="-13.6196" gradientUnits="userSpaceOnUse">
<stop/>
<stop offset="0.989473" stop-opacity="0"/>
</linearGradient>
<linearGradient id="paint1_linear_7869" x1="51.7692" y1="27.3333" x2="10.4551" y2="-13.6196" gradientUnits="userSpaceOnUse">
<stop/>
<stop offset="0.989473" stop-opacity="0"/>
</linearGradient>
<linearGradient id="paint2_linear_7869" x1="51.7692" y1="27.3333" x2="10.4551" y2="-13.6196" gradientUnits="userSpaceOnUse">
<stop/>
<stop offset="0.989473" stop-opacity="0"/>
</linearGradient>
<linearGradient id="paint3_linear_7869" x1="51.7692" y1="27.3333" x2="10.4551" y2="-13.6196" gradientUnits="userSpaceOnUse">
<stop/>
<stop offset="0.989473" stop-opacity="0"/>
</linearGradient>
<linearGradient id="paint4_linear_7869" x1="51.7692" y1="27.3333" x2="10.4551" y2="-13.6196" gradientUnits="userSpaceOnUse">
<stop/>
<stop offset="0.989473" stop-opacity="0"/>
</linearGradient>
<linearGradient id="paint5_linear_7869" x1="51.7692" y1="27.3333" x2="10.4551" y2="-13.6196" gradientUnits="userSpaceOnUse">
<stop/>
<stop offset="0.989473" stop-opacity="0"/>
</linearGradient>
<linearGradient id="paint6_linear_7869" x1="51.7692" y1="27.3333" x2="10.4551" y2="-13.6196" gradientUnits="userSpaceOnUse">
<stop/>
<stop offset="0.989473" stop-opacity="0"/>
</linearGradient>
<linearGradient id="paint7_linear_7869" x1="51.7692" y1="27.3333" x2="10.4551" y2="-13.6196" gradientUnits="userSpaceOnUse">
<stop/>
<stop offset="0.989473" stop-opacity="0"/>
</linearGradient>
<linearGradient id="paint8_linear_7869" x1="51.7692" y1="27.3333" x2="10.4551" y2="-13.6196" gradientUnits="userSpaceOnUse">
<stop/>
<stop offset="0.989473" stop-opacity="0"/>
</linearGradient>
<linearGradient id="paint9_linear_7869" x1="51.7692" y1="27.3333" x2="10.4551" y2="-13.6196" gradientUnits="userSpaceOnUse">
<stop/>
<stop offset="0.989473" stop-opacity="0"/>
</linearGradient>
</defs>
</svg>
