<svg width="31" height="31" viewBox="0 0 31 31" fill="none" xmlns="http://www.w3.org/2000/svg">
<g style="mix-blend-mode:soft-light">
<path fill-rule="evenodd" clip-rule="evenodd" d="M24.5745 24.5745V24.9255C24.5745 29.3849 20.9594 33 16.5 33C12.0406 33 8.42553 29.3849 8.42553 24.9255V24.5745H8.07447C3.61506 24.5745 0 20.9594 0 16.5C0 12.0406 3.61506 8.42553 8.07447 8.42553H8.42553V8.07447C8.42553 3.61506 12.0406 0 16.5 0C20.9594 0 24.5745 3.61506 24.5745 8.07447V8.42553H24.9255C29.3849 8.42553 33 12.0406 33 16.5C33 20.9594 29.3849 24.5745 24.9255 24.5745H24.5745ZM22.4681 24.5745V24.9255C22.4681 28.2216 19.7961 30.8936 16.5 30.8936C13.2039 30.8936 10.5319 28.2216 10.5319 24.9255V24.5745H22.4681ZM24.5745 10.5319H24.9255C28.2216 10.5319 30.8936 13.2039 30.8936 16.5C30.8936 19.7961 28.2216 22.4681 24.9255 22.4681H24.5745V10.5319ZM22.4681 10.5319V22.4681L10.5319 22.4681V10.5319L22.4681 10.5319ZM22.4681 8.42553V8.07447C22.4681 4.77839 19.7961 2.10638 16.5 2.10638C13.2039 2.10638 10.5319 4.77838 10.5319 8.07447V8.42553L22.4681 8.42553ZM8.42553 10.5319H8.07447C4.77839 10.5319 2.10638 13.2039 2.10638 16.5C2.10638 19.7961 4.77839 22.4681 8.07447 22.4681H8.42553V10.5319Z" fill="url(#paint0_linear_42175)"/>
</g>
<defs>
<linearGradient id="paint0_linear_42175" x1="29.9176" y1="25.6667" x2="-16.2665" y2="15.8566" gradientUnits="userSpaceOnUse">
<stop/>
<stop offset="0.989473" stop-opacity="0"/>
</linearGradient>
</defs>
</svg>
