<svg width="89" height="31" viewBox="0 0 89 31" fill="none" xmlns="http://www.w3.org/2000/svg">
<g style="mix-blend-mode:soft-light">
<path d="M0.0440114 16.9607L10.4403 14.9708L11.0002 17.8962L0.603926 19.886L0.0440114 16.9607Z" fill="url(#paint0_linear_42156)"/>
<path d="M4.38307 20.0958L7.56559 19.4867L10.9251 37.039L7.74255 37.6481L4.38307 20.0958Z" fill="url(#paint1_linear_42156)"/>
<path d="M13.8349 14.3211L17.0175 13.712L21.0661 34.8648L17.8836 35.4739L13.8349 14.3211Z" fill="url(#paint2_linear_42156)"/>
<path d="M18.5951 16.2093L18.0998 13.6214L20.2215 13.2154C20.858 13.0935 22.0391 13.404 22.6862 14.0266C23.3332 14.6493 23.6672 15.705 23.7534 16.1551L24.7871 21.5558C24.8947 22.1184 24.5993 22.7581 24.346 23.2732C24.0926 23.7882 23.6337 24.1482 23.4359 24.2638C23.5845 24.2742 24.0263 24.3607 24.6044 24.6233C25.1825 24.8859 25.5413 25.6881 25.6485 26.0564L27.2534 33.8671L24.0497 34.4803L22.6714 27.2794C22.6283 27.0544 22.529 26.4202 22.04 26.1639C21.6489 25.9588 20.7306 26.0257 20.3842 26.1309L19.9949 23.5228C20.3911 23.4858 21.2384 23.3547 21.4586 23.126C21.6787 22.8972 21.7885 22.6663 21.7669 22.5538L20.6902 16.928C20.7184 16.8837 20.5961 16.6661 20.2726 16.3548C19.949 16.0435 19.0195 16.1281 18.5951 16.2093Z" fill="url(#paint3_linear_42156)"/>
<path d="M33.8848 10.4836L31.0206 11.0318L37.9334 31.6364L40.9038 31.0679L33.8848 10.4836Z" fill="url(#paint4_linear_42156)"/>
<path d="M29.5354 11.3161L30.6352 33.1499L33.4994 32.6017L33.3838 29.1247L35.9298 28.6374L34.9671 25.9058L33.1637 26.2509L32.6756 18.5297L30.0658 11.2145L29.5354 11.3161Z" fill="url(#paint5_linear_42156)"/>
<path d="M40.356 9.24502L43.5385 8.63589L47.5871 29.7887L44.4046 30.3978L40.356 9.24502Z" fill="url(#paint6_linear_42156)"/>
<path d="M44.904 11.1738L44.3872 8.47346L45.9784 8.16889C46.8486 8.11897 47.9525 8.14096 49.1442 9.19588C50.0975 10.0398 50.4948 11.4645 50.5743 12.0714L52.9216 24.3355C53.0508 25.0106 52.9711 26.892 52.104 28.1077C51.4104 29.0802 49.4402 29.5118 48.5419 29.606L48.025 26.9056C48.6615 26.7838 48.9798 26.7229 49.4456 26.2838C49.9114 25.8447 49.696 24.7196 49.6099 24.2695L47.3702 12.568C47.2841 12.1179 46.9643 11.5959 46.4753 11.3396C46.0842 11.1346 45.2648 11.1436 44.904 11.1738Z" fill="url(#paint7_linear_42156)"/>
<path d="M53.2982 6.7679L56.4807 6.15877L60.5294 27.3116L57.3468 27.9207L53.2982 6.7679Z" fill="url(#paint8_linear_42156)"/>
<path d="M57.3294 5.99633L61.7849 5.14355L62.3449 8.06894L57.8893 8.92172L57.3294 5.99633Z" fill="url(#paint9_linear_42156)"/>
<path d="M60.8181 24.2237L65.2736 23.371L65.8336 26.2964L61.378 27.1491L60.8181 24.2237Z" fill="url(#paint10_linear_42156)"/>
<path d="M59.0522 14.9975L63.0834 14.226L63.6433 17.1513L59.6121 17.9229L59.0522 14.9975Z" fill="url(#paint11_linear_42156)"/>
<path d="M65.604 4.4126L68.7865 3.80346L72.8351 24.9563L69.6526 25.5654L65.604 4.4126Z" fill="url(#paint12_linear_42156)"/>
<path d="M70.152 6.34139L69.6352 3.64103L71.2264 3.33647C72.0751 3.17403 73.4127 3.26792 74.2215 4.04622C75.0303 4.82451 75.181 5.61212 75.2887 6.17469L76.2793 11.3504C76.3847 11.9009 76.321 12.6021 76.0504 13.0271C75.7798 13.4521 75.2536 14.035 75.0773 14.2631C75.2823 14.185 76.1038 14.4554 76.6287 14.8993C77.0785 15.2797 77.2899 16.0557 77.3545 16.3932L78.7758 23.8192L75.6994 24.4081L74.2781 16.9821C74.2135 16.6445 73.8944 16.3969 73.4693 16.2038C73.108 16.0397 72.4714 16.1615 72.0471 16.2427L71.5087 13.4298L72.5696 13.2268C73.1 13.1253 73.3321 12.6143 73.289 12.3893L72.2338 6.87603C72.1907 6.651 71.9355 6.46658 71.5742 6.30246C71.2851 6.17117 70.5056 6.27371 70.152 6.34139Z" fill="url(#paint13_linear_42156)"/>
<path d="M88.7725 7.67619L85.6961 8.26502L84.9639 4.43951C84.9424 4.327 84.8439 4.04258 84.6225 3.80503C84.4011 3.56748 84.0131 3.494 83.7938 3.4971L83.2769 0.796745C84.3378 0.593703 85.5758 0.695095 86.1859 1.05644C86.9301 1.49719 87.7604 2.38799 87.8896 3.06308L88.7725 7.67619Z" fill="url(#paint14_linear_42156)"/>
<path d="M79.9054 2.14188C80.481 1.47186 81.7846 1.0435 82.4283 0.959178L82.9236 3.54703C82.8457 3.52306 82.5549 3.80421 82.2671 4.13922C81.9793 4.47423 81.9864 4.97053 82.0151 5.12055L82.4889 7.59588C82.7473 8.94606 83.6252 9.12794 84.0219 9.28529L84.7325 12.9983C83.5425 12.5262 81.0086 11.2383 80.5658 10.7632C80.0122 10.1694 79.7753 8.93168 79.4738 7.35649C79.232 6.09312 79.0724 5.45051 78.957 4.65613C78.8746 4.08872 79.3298 2.8119 79.9054 2.14188Z" fill="url(#paint15_linear_42156)"/>
<path d="M80.8321 15.0278L83.9086 14.439L84.7054 18.602C84.7288 18.7245 84.8322 19.0347 85.0582 19.2961C85.2841 19.5575 85.6745 19.6435 85.8945 19.6437L86.4569 22.5823C85.3961 22.7854 84.1526 22.6552 83.5347 22.2532C82.781 21.7628 81.9336 20.7826 81.793 20.048L80.8321 15.0278Z" fill="url(#paint16_linear_42156)"/>
<path d="M90.0234 21.1622C89.4553 21.8567 88.1583 22.292 87.5168 22.3742L86.9986 19.6665C87.0765 19.6922 87.3641 19.4013 87.6481 19.054C87.9322 18.7068 87.9206 18.1883 87.8906 18.0313L87.3949 15.4414C87.1245 14.0287 86.2467 13.8306 85.8494 13.6625L85.1058 9.77763C86.2977 10.2817 88.8382 11.6504 89.2845 12.1508C89.8424 12.7762 90.0903 14.0712 90.4057 15.7194C90.6587 17.0412 90.824 17.7139 90.9465 18.5447C91.034 19.1382 90.5915 20.4676 90.0234 21.1622Z" fill="url(#paint17_linear_42156)"/>
</g>
<defs>
<linearGradient id="paint0_linear_42156" x1="82.465" y1="18.3688" x2="-3.17935" y2="-30.7544" gradientUnits="userSpaceOnUse">
<stop/>
<stop offset="0.989473" stop-opacity="0"/>
</linearGradient>
<linearGradient id="paint1_linear_42156" x1="82.465" y1="18.3688" x2="-3.17935" y2="-30.7544" gradientUnits="userSpaceOnUse">
<stop/>
<stop offset="0.989473" stop-opacity="0"/>
</linearGradient>
<linearGradient id="paint2_linear_42156" x1="82.465" y1="18.3688" x2="-3.17935" y2="-30.7544" gradientUnits="userSpaceOnUse">
<stop/>
<stop offset="0.989473" stop-opacity="0"/>
</linearGradient>
<linearGradient id="paint3_linear_42156" x1="82.465" y1="18.3688" x2="-3.17935" y2="-30.7544" gradientUnits="userSpaceOnUse">
<stop/>
<stop offset="0.989473" stop-opacity="0"/>
</linearGradient>
<linearGradient id="paint4_linear_42156" x1="82.465" y1="18.3688" x2="-3.17935" y2="-30.7544" gradientUnits="userSpaceOnUse">
<stop/>
<stop offset="0.989473" stop-opacity="0"/>
</linearGradient>
<linearGradient id="paint5_linear_42156" x1="82.465" y1="18.3688" x2="-3.17935" y2="-30.7544" gradientUnits="userSpaceOnUse">
<stop/>
<stop offset="0.989473" stop-opacity="0"/>
</linearGradient>
<linearGradient id="paint6_linear_42156" x1="82.465" y1="18.3688" x2="-3.17935" y2="-30.7544" gradientUnits="userSpaceOnUse">
<stop/>
<stop offset="0.989473" stop-opacity="0"/>
</linearGradient>
<linearGradient id="paint7_linear_42156" x1="82.465" y1="18.3688" x2="-3.17935" y2="-30.7544" gradientUnits="userSpaceOnUse">
<stop/>
<stop offset="0.989473" stop-opacity="0"/>
</linearGradient>
<linearGradient id="paint8_linear_42156" x1="82.465" y1="18.3688" x2="-3.17935" y2="-30.7544" gradientUnits="userSpaceOnUse">
<stop/>
<stop offset="0.989473" stop-opacity="0"/>
</linearGradient>
<linearGradient id="paint9_linear_42156" x1="82.465" y1="18.3688" x2="-3.17935" y2="-30.7544" gradientUnits="userSpaceOnUse">
<stop/>
<stop offset="0.989473" stop-opacity="0"/>
</linearGradient>
<linearGradient id="paint10_linear_42156" x1="82.465" y1="18.3688" x2="-3.17935" y2="-30.7544" gradientUnits="userSpaceOnUse">
<stop/>
<stop offset="0.989473" stop-opacity="0"/>
</linearGradient>
<linearGradient id="paint11_linear_42156" x1="82.465" y1="18.3688" x2="-3.17935" y2="-30.7544" gradientUnits="userSpaceOnUse">
<stop/>
<stop offset="0.989473" stop-opacity="0"/>
</linearGradient>
<linearGradient id="paint12_linear_42156" x1="82.465" y1="18.3688" x2="-3.17935" y2="-30.7544" gradientUnits="userSpaceOnUse">
<stop/>
<stop offset="0.989473" stop-opacity="0"/>
</linearGradient>
<linearGradient id="paint13_linear_42156" x1="82.465" y1="18.3688" x2="-3.17935" y2="-30.7544" gradientUnits="userSpaceOnUse">
<stop/>
<stop offset="0.989473" stop-opacity="0"/>
</linearGradient>
<linearGradient id="paint14_linear_42156" x1="82.465" y1="18.3688" x2="-3.17935" y2="-30.7544" gradientUnits="userSpaceOnUse">
<stop/>
<stop offset="0.989473" stop-opacity="0"/>
</linearGradient>
<linearGradient id="paint15_linear_42156" x1="82.465" y1="18.3688" x2="-3.17935" y2="-30.7544" gradientUnits="userSpaceOnUse">
<stop/>
<stop offset="0.989473" stop-opacity="0"/>
</linearGradient>
<linearGradient id="paint16_linear_42156" x1="82.465" y1="18.3688" x2="-3.17935" y2="-30.7544" gradientUnits="userSpaceOnUse">
<stop/>
<stop offset="0.989473" stop-opacity="0"/>
</linearGradient>
<linearGradient id="paint17_linear_42156" x1="82.465" y1="18.3688" x2="-3.17935" y2="-30.7544" gradientUnits="userSpaceOnUse">
<stop/>
<stop offset="0.989473" stop-opacity="0"/>
</linearGradient>
</defs>
</svg>
